#!OML:ASF X:\für Bonn\!DataBase\2005_08_12_Daniel\c3d\Daniel.ASF
:FULLY-SPECIFIED
:DEGREES
355
root 2.14182 17.3792 -12.2814 350.812 22.5916 -0.317925
lowerback 21.4525 -3.06284 -4.99405
upperback 3.75666 -5.39516 -3.69679
thorax -7.75751 -2.48044 0.29361
lowerneck 1.44725 -4.89458 -4.70089
upperneck 15.7029 -7.81349 9.90538
head 5.02146 -3.57697 3.53876
rclavicle -2.8625e-014 -3.18055e-014
rhumerus -26.0844 3.36261 -92.8771
rradius 71.4133
rwrist -61.3626
rhand 5.66126 13.8662
rfingers 7.12502
rthumb 31.0005 -13.5352
lclavicle -2.8625e-014 -3.18055e-014
lhumerus -23.1617 36.4172 70.8673
lradius 17.9639
lwrist -37.4426
lhand -12.3948 -5.92681
lfingers 7.12502
lthumb 13.6765 23.6038
rfemur -20.9145 -8.53619 18.6707
rtibia 62.3255
rfoot -5.68645 -350.576
rtoes -9.55788
lfemur 3.51756 -11.9817 -26.0675
ltibia 33.8923
lfoot -30.2977 -3.07702
ltoes -9.13264
356
root 2.15994 17.3746 -12.2303 350.903 22.703 -0.237666
lowerback 21.2607 -3.12986 -5.14601
upperback 3.65582 -5.50911 -3.66976
thorax -7.74539 -2.53155 0.429843
lowerneck 1.66179 -4.94601 -4.75856
upperneck 15.6656 -7.8865 9.92285
head 4.98222 -3.62272 3.5561
rclavicle -8.32908e-014 4.77083e-015
rhumerus -26.2624 3.32345 -92.632
rradius 71.7457
rwrist -62.2317
rhand 5.69958 13.8199
rfingers 7.12502
rthumb 31.037 -13.5745
lclavicle -8.32908e-014 4.77083e-015
lhumerus -23.3352 36.5035 70.8129
lradius 17.8968
lwrist -37.6578
lhand -12.4482 -5.99553
lfingers 7.12502
lthumb 13.6251 23.5386
rfemur -21.2918 -8.78078 18.7586
rtibia 61.9836
rfoot -5.78958 -350.233
rtoes -9.73548
lfemur 3.80116 -12.0606 -26.204
ltibia 33.6878
lfoot -30.4585 -3.02506
ltoes -9.49669
357
root 2.17934 17.3688 -12.178 351.005 22.8158 -0.190247
lowerback 21.0365 -3.21432 -5.2327
upperback 3.57001 -5.62884 -3.65821
thorax -7.70639 -2.58839 0.511413
lowerneck 1.82314 -4.98984 -4.71134
upperneck 15.6298 -7.94482 9.89525
head 4.94594 -3.65614 3.54122
rclavicle 3.57812e-014 1.74931e-014
rhumerus -26.4703 3.27024 -92.4605
rradius 72.086
rwrist -63.0803
rhand 5.63052 13.5835
rfingers 7.12502
rthumb 30.9712 -13.8235
lclavicle 3.57812e-014 1.74931e-014
lhumerus -23.4777 36.6702 70.721
lradius 17.8387
lwrist -37.9251
lhand -12.4497 -6.06078
lfingers 7.12502
lthumb 13.6236 23.4734
rfemur -21.6682 -9.03946 18.8745
rtibia 61.5749
rfoot -5.95754 -350.032
rtoes -9.90696
lfemur 4.06286 -12.2239 -26.3331
ltibia 33.4943
lfoot -30.6431 -2.92256
ltoes -9.78545
358
root 2.19772 17.3647 -12.1228 351.08 22.9128 -0.149919
lowerback 20.8713 -3.28358 -5.32523
upperback 3.46743 -5.73407 -3.63033
thorax -7.71484 -2.63602 0.613556
lowerneck 1.9969 -5.03997 -4.69487
upperneck 15.6092 -8.00846 9.84089
head 4.9129 -3.69517 3.52322
rclavicle 3.16068e-014 3.97569e-014
rhumerus -26.6873 3.27203 -92.2727
rradius 72.3152
rwrist -63.8157
rhand 5.42735 13.4343
rfingers 7.12502
rthumb 30.7775 -14.0094
lclavicle 3.16068e-014 3.97569e-014
lhumerus -23.6986 36.9191 70.6096
lradius 17.7812
lwrist -38.2207
lhand -12.5664 -6.22181
lfingers 7.12502
lthumb 13.5112 23.3199
rfemur -22.0012 -9.23952 19.0083
rtibia 61.097
rfoot -6.17071 -350.033
rtoes -10.1523
lfemur 4.3611 -12.3525 -26.4367
ltibia 33.2814
lfoot -30.8034 -2.87202
ltoes -10.0237
359
root 2.2159 17.3598 -12.066 351.173 23.0202 -0.0880106
lowerback 20.6921 -3.35104 -5.44087
upperback 3.3811 -5.83908 -3.60121
thorax -7.69478 -2.68392 0.727779
lowerneck 2.12153 -5.09353 -4.70421
upperneck 15.585 -8.08033 9.82326
head 4.88993 -3.73642 3.51928
rclavicle -2.68359e-014 -1.90833e-014
rhumerus -26.8966 3.28741 -92.0955
rradius 72.5373
rwrist -64.5023
rhand 5.1329 13.258
rfingers 7.12502
rthumb 30.4967 -14.2381
lclavicle -2.68359e-014 -1.90833e-014
lhumerus -23.869 36.9268 70.5953
lradius 17.796
lwrist -38.2091
lhand -12.5489 -6.3072
lfingers 7.12502
lthumb 13.528 23.2334
rfemur -22.3195 -9.44103 19.1124
rtibia 60.5578
rfoot -6.42167 -350.119
rtoes -10.373
lfemur 4.66586 -12.4809 -26.5562
ltibia 33.0445
lfoot -30.957 -2.82677
ltoes -10.2695
360
root 2.23441 17.3573 -12.0064 351.25 23.1008 -0.0419389
lowerback 20.5468 -3.41729 -5.51397
upperback 3.27648 -5.93877 -3.58913
thorax -7.71884 -2.72879 0.801074
lowerneck 2.21823 -5.1443 -4.66875
upperneck 15.6046 -8.15036 9.78968
head 4.88274 -3.77321 3.50225
rclavicle 8.68689e-014 -1.59028e-015
rhumerus -27.1767 3.33424 -91.9568
rradius 72.737
rwrist -65.1275
rhand 4.7592 13.1023
rfingers 7.12502
rthumb 30.1403 -14.4595
lclavicle 8.68689e-014 -1.59028e-015
lhumerus -24.1189 37.0805 70.4739
lradius 17.7971
lwrist -38.3139
lhand -12.5418 -6.49182
lfingers 7.12502
lthumb 13.5348 23.0483
rfemur -22.5901 -9.57576 19.2325
rtibia 59.9371
rfoot -6.70989 -350.381
rtoes -10.594
lfemur 5.00756 -12.5792 -26.6626
ltibia 32.7743
lfoot -31.0719 -2.74068
ltoes -10.4423
361
root 2.25263 17.3563 -11.9439 351.346 23.1873 0.0236563
lowerback 20.3696 -3.47173 -5.61545
upperback 3.20521 -6.02227 -3.56304
thorax -7.68482 -2.76727 0.89721
lowerneck 2.244 -5.20612 -4.63933
upperneck 15.5971 -8.22779 9.72763
head 4.87896 -3.81387 3.47477
rclavicle -9.14409e-015 4.45278e-014
rhumerus -27.3957 3.44365 -91.7804
rradius 72.8985
rwrist -65.7948
rhand 4.35387 13.0266
rfingers 7.12502
rthumb 29.7535 -14.6051
lclavicle -9.14409e-015 4.45278e-014
lhumerus -24.3029 37.294 70.4274
lradius 17.7795
lwrist -38.469
lhand -12.5851 -6.70615
lfingers 7.12502
lthumb 13.4931 22.8367
rfemur -22.8571 -9.69875 19.326
rtibia 59.2584
rfoot -6.99344 -350.747
rtoes -10.8444
lfemur 5.36582 -12.6684 -26.7763
ltibia 32.4659
lfoot -31.1408 -2.66725
ltoes -10.4639
362
root 2.27119 17.3571 -11.8808 351.434 23.2595 0.0650263
lowerback 20.2383 -3.53291 -5.69284
upperback 3.11089 -6.11419 -3.52897
thorax -7.70143 -2.80817 0.994298
lowerneck 2.2369 -5.25943 -4.65829
upperneck 15.6555 -8.3045 9.71338
head 4.90441 -3.85193 3.46925
rclavicle 1.31695e-013 -1.27222e-014
rhumerus -27.6607 3.60148 -91.6345
rradius 73.05
rwrist -66.3623
rhand 3.88225 12.9605
rfingers 7.12502
rthumb 29.3033 -14.7507
lclavicle 1.31695e-013 -1.27222e-014
lhumerus -24.5198 37.3105 70.4045
lradius 17.8261
lwrist -38.321
lhand -12.5265 -6.88962
lfingers 7.12502
lthumb 13.5496 22.6495
rfemur -23.1106 -9.78585 19.4492
rtibia 58.4946
rfoot -7.25487 -351.203
rtoes -11.1049
lfemur 5.72103 -12.7311 -26.85
ltibia 32.1318
lfoot -31.1641 -2.64864
ltoes -10.3349
363
root 2.28986 17.3578 -11.8166 351.529 23.3291 0.126748
lowerback 20.123 -3.58723 -5.77764
upperback 3.02382 -6.19807 -3.48232
thorax -7.71637 -2.84481 1.10747
lowerneck 2.13705 -5.32155 -4.70998
upperneck 15.7528 -8.38881 9.66091
head 4.958 -3.89374 3.45369
rclavicle -1.38155e-014 1.59028e-014
rhumerus -27.898 3.79823 -91.4634
rradius 73.1921
rwrist -66.8879
rhand 3.35179 12.9307
rfingers 7.12502
rthumb 28.7967 -14.8679
lclavicle -1.38155e-014 1.59028e-014
lhumerus -24.7475 37.3527 70.443
lradius 17.9081
lwrist -38.1669
lhand -12.4826 -7.01822
lfingers 7.12502
lthumb 13.5919 22.5181
rfemur -23.3457 -9.83538 19.543
rtibia 57.6636
rfoot -7.49569 -351.763
rtoes -11.111
lfemur 6.09995 -12.8225 -26.9657
ltibia 31.7656
lfoot -31.1604 -2.53736
ltoes -10.3024
364
root 2.30835 17.3596 -11.7511 351.63 23.3791 0.172501
lowerback 20.0063 -3.63779 -5.79916
upperback 2.93868 -6.26701 -3.47914
thorax -7.74083 -2.87619 1.13494
lowerneck 2.02825 -5.39522 -4.62402
upperneck 15.8428 -8.48684 9.57907
head 5.00537 -3.936 3.40515
rclavicle -1.04461e-013 -1.59028e-014
rhumerus -28.1328 3.92233 -91.361
rradius 73.2851
rwrist -67.3757
rhand 2.77094 12.8784
rfingers 7.12502
rthumb 28.2417 -15.0132
lclavicle -1.04461e-013 -1.59028e-014
lhumerus -24.9425 37.2007 70.4697
lradius 18.0222
lwrist -37.8655
lhand -12.35 -7.14418
lfingers 7.12502
lthumb 13.7197 22.3835
rfemur -23.5773 -9.84597 19.6615
rtibia 56.7557
rfoot -7.69381 -352.394
rtoes -11.1579
lfemur 6.46586 -12.8839 -27.0438
ltibia 31.3993
lfoot -31.1232 -2.49408
ltoes -10.0129
365
root 2.32792 17.3632 -11.6837 351.735 23.4039 0.219743
lowerback 19.9149 -3.68101 -5.83054
upperback 2.82794 -6.33015 -3.44619
thorax -7.80253 -2.90238 1.2011
lowerneck 1.94388 -5.45627 -4.66113
upperneck 15.9452 -8.57095 9.53028
head 5.05747 -3.97709 3.38858
rclavicle -2.01766e-014 1.43125e-014
rhumerus -28.3926 4.08394 -91.2477
rradius 73.3351
rwrist -67.8414
rhand 2.22164 12.7723
rfingers 7.12502
rthumb 27.7165 -15.205
lclavicle -2.01766e-014 1.43125e-014
lhumerus -25.2064 36.8728 70.5729
lradius 18.2337
lwrist -37.3098
lhand -12.1362 -7.22906
lfingers 7.12502
lthumb 13.9257 22.2846
rfemur -23.7663 -9.86414 19.762
rtibia 55.7636
rfoot -7.85429 -352.997
rtoes -10.931
lfemur 6.83131 -12.886 -27.1132
ltibia 31.0309
lfoot -31.1086 -2.44996
ltoes -9.85492
